<svg width="136" height="56" viewBox="0 0 136 56" fill="none" xmlns="http://www.w3.org/2000/svg">
<g clip-path="url(#clip0_1_1036)">
<path d="M80.8933 0.250977V12.4452H80.1873V2.65481L75.9103 9.55708H75.8809L71.6333 2.73649V12.4452H70.9273V0.250977H70.9391L75.8927 8.33183L80.8757 0.250977H80.8933Z" fill="white"/>
<path d="M89.9761 8.50094H85.3873L84.0106 12.4509H83.2929L87.6935 0H87.7523L92.147 12.4451H91.341L89.9761 8.50094ZM89.7114 7.72494L87.7052 1.86706L85.652 7.73078H89.7114V7.72494Z" fill="white"/>
<path d="M103.284 0.51944V12.7312H103.254L95.2414 2.3865L95.2532 12.4511H94.5472V0.268555H94.5884L102.607 10.7007L102.595 0.51944H103.284Z" fill="white"/>
<path d="M107.32 0.519043V11.6572H113.021V12.4449H106.602V0.519043H107.32Z" fill="white"/>
<path d="M122.358 0.519043L118.475 8.19731V12.4449H117.757V8.19731L113.874 0.519043H114.751L118.139 7.26962L121.499 0.519043H122.358Z" fill="white"/>
<path d="M74.9568 17.626C74.5273 17.4918 74.1096 17.4218 73.6978 17.4218C73.0153 17.4218 72.4682 17.6143 72.0564 17.9994C71.6446 18.3845 71.4387 18.8804 71.4387 19.4872C71.4387 19.9131 71.5504 20.2748 71.7681 20.5724C71.9858 20.87 72.2682 21.115 72.6094 21.3134C72.9506 21.5118 73.3919 21.7276 73.9272 21.961C74.5155 22.2061 74.9979 22.457 75.3862 22.7195C75.7745 22.9762 76.0981 23.3263 76.3628 23.7697C76.6276 24.2132 76.757 24.7791 76.757 25.4734C76.757 26.1327 76.6217 26.722 76.3452 27.2296C76.0746 27.7372 75.6863 28.134 75.1921 28.414C74.6979 28.6941 74.1331 28.8341 73.4977 28.8341C72.3917 28.8341 71.2975 28.4257 70.215 27.6089L70.5503 26.9379C70.9092 27.253 71.3563 27.5272 71.8858 27.7606C72.4153 27.994 72.9271 28.1106 73.4271 28.1106C73.8684 28.1106 74.2861 28.0115 74.6803 27.8189C75.0744 27.6205 75.398 27.3288 75.6451 26.9262C75.8922 26.5295 76.0216 26.051 76.0216 25.4909C76.0216 24.9658 75.9039 24.5224 75.6745 24.1665C75.4451 23.8106 75.1568 23.5189 74.8097 23.303C74.4626 23.0871 74.0272 22.8654 73.4977 22.6378C72.9094 22.3928 72.427 22.1536 72.0446 21.926C71.6622 21.6985 71.3445 21.3892 71.0857 21.01C70.8268 20.6308 70.6974 20.1523 70.6974 19.5805C70.6974 19.0204 70.8209 18.5245 71.0739 18.0927C71.321 17.661 71.6681 17.3284 72.1152 17.0833C72.5623 16.8441 73.0565 16.7158 73.6036 16.7041C74.0743 16.7041 74.5567 16.7741 75.0627 16.92C75.5686 17.0658 76.0157 17.2526 76.404 17.4743L76.1275 18.1102C75.7745 17.9235 75.3862 17.7602 74.9568 17.626Z" fill="white"/>
<path d="M85.2703 16.7686V17.5562H82.2051V28.6944H81.4874V17.5621H78.4517V16.7744H85.2703V16.7686Z" fill="white"/>
<path d="M94.1715 16.7686V17.5562H88.4708V22.2939H93.6008V23.0815H88.4708V27.9009H94.3774V28.6885H87.753V16.7686H94.1715Z" fill="white"/>
<path d="M105.119 29.2313L102.731 22.0606L100.283 29.2488L96.1768 16.8037H97.0005L100.36 27.3175L102.384 21.0337L100.977 16.7979H101.695L105.154 27.2125L108.543 16.7979H109.308L105.119 29.2313Z" fill="white"/>
<path d="M116.244 24.75H111.656L110.279 28.7H109.561L113.956 16.2549H114.015L118.409 28.7H117.603L116.244 24.75ZM115.98 23.974L113.974 18.1103L111.92 23.974H115.98Z" fill="white"/>
<path d="M126.652 28.6944L123.928 23.6242C123.722 23.6708 123.463 23.6942 123.151 23.6942H121.539V28.7002H120.822V16.7686H123.198C123.745 16.7686 124.269 16.8911 124.775 17.1361C125.281 17.3812 125.687 17.7604 126.005 18.2622C126.322 18.764 126.481 19.3941 126.481 20.1409C126.481 20.8702 126.334 21.5295 126.04 22.113C125.746 22.7023 125.293 23.1282 124.675 23.3966L127.487 28.6885H126.652V28.6944ZM125.134 22.0955C125.54 21.5587 125.74 20.9169 125.74 20.1818C125.74 19.7092 125.64 19.2774 125.44 18.869C125.24 18.4664 124.951 18.1455 124.581 17.9121C124.21 17.6787 123.781 17.5621 123.292 17.5621H121.533V22.9065H123.104C124.051 22.9007 124.728 22.6323 125.134 22.0955Z" fill="white"/>
<path d="M136 16.7686V17.5562H132.935V28.6944H132.217V17.5621H129.181V16.7744H136V16.7686Z" fill="white"/>
<path d="M76.7574 33.0176V33.8052H71.6391V38.7296H76.1691V39.4998H71.6391V44.9434H70.9213V33.0176H76.7574Z" fill="white"/>
<path d="M80.1104 33.0176V44.9434H79.3927V33.0176H80.1104Z" fill="white"/>
<path d="M92.1587 33.0175V45.2292H92.1293L84.1106 34.8787L84.1282 44.9433H83.4222V32.7666H83.4634L91.4821 43.1988L91.4703 33.0175H92.1587Z" fill="white"/>
<path d="M101.248 40.9995H96.6596L95.2829 44.9495H94.5652L98.9599 32.5044H99.0187L103.413 44.9495H102.607L101.248 40.9995ZM100.984 40.2235L98.9775 34.3598L96.9243 40.2235H100.984Z" fill="white"/>
<path d="M106.537 33.0176V44.1557H112.238V44.9434H105.82V33.0176H106.537Z" fill="white"/>
<path d="M114.662 33.0176H117.227C118.498 33.0176 119.551 33.3151 120.386 33.9103C121.222 34.5054 121.833 35.258 122.216 36.1799C122.604 37.0959 122.792 38.0586 122.792 39.0505C122.792 40.2174 122.557 41.2443 122.098 42.1428C121.633 43.0413 121.016 43.7298 120.239 44.2199C119.462 44.71 118.627 44.9492 117.727 44.9492H114.662V33.0176ZM117.533 44.1557C118.374 44.1557 119.139 43.9457 119.827 43.5256C120.516 43.1055 121.063 42.5046 121.463 41.7286C121.863 40.9526 122.063 40.0424 122.063 38.998C122.063 38.0703 121.88 37.2068 121.516 36.4191C121.151 35.6315 120.61 35.0013 119.898 34.5287C119.186 34.0561 118.327 33.8227 117.333 33.8227H115.385V44.1557H117.533Z" fill="white"/>
<path d="M126.163 33.0176V44.9434H125.446V33.0176H126.163Z" fill="white"/>
<path d="M71.4912 51.7231V55.2764H73.5856V55.8073H70.9382V51.7231H71.4912Z" fill="white"/>
<path d="M82.899 54.734H81.3164L80.881 55.8076H80.3339L82.1342 51.5542H82.1695L83.9697 55.8076H83.3343L82.899 54.734ZM82.7107 54.2614L82.1224 52.7736L81.5164 54.2614H82.7107Z" fill="white"/>
<path d="M93.7651 55.9883L92.8003 53.5494L91.7472 55.9999L90.1058 51.7407H90.7471L91.8119 54.7105L92.5238 52.861L92.0884 51.7407H92.6355L93.7828 54.6463L94.7946 51.7407H95.3888L93.7651 55.9883Z" fill="white"/>
<path d="M105.655 51.7231L104.113 54.442V55.8015H103.56V54.442L102.037 51.7231H102.719L103.855 53.8236L104.984 51.7231H105.655Z" fill="white"/>
<path d="M115.344 51.7231V52.2483H113.22V53.491H115.115V54.0161H113.22V55.2764H115.421V55.8073H112.667V51.7231H115.344Z" fill="white"/>
<path d="M124.916 55.8073L123.945 54.302C123.916 54.3078 123.869 54.3078 123.81 54.3078H123.204V55.8073H122.651V51.7231H123.751C124.034 51.7231 124.281 51.7698 124.504 51.869C124.722 51.9682 124.899 52.1082 125.022 52.3008C125.146 52.4933 125.21 52.7209 125.21 52.9892C125.21 53.2401 125.157 53.4735 125.04 53.6836C124.928 53.8936 124.757 54.057 124.522 54.162L125.557 55.8073H124.916ZM124.44 53.5435C124.569 53.3918 124.634 53.211 124.634 53.0126C124.634 52.8901 124.604 52.7734 124.551 52.6567C124.498 52.54 124.41 52.4408 124.287 52.3649C124.169 52.2891 124.016 52.2483 123.834 52.2483H123.198V53.7711H123.798C124.093 53.7711 124.31 53.6952 124.44 53.5435Z" fill="white"/>
<path d="M134.323 52.2598C134.159 52.2131 134 52.184 133.853 52.184C133.629 52.184 133.453 52.2365 133.323 52.3357C133.194 52.4349 133.129 52.5691 133.129 52.7441C133.129 52.9133 133.205 53.0533 133.358 53.1583C133.511 53.2634 133.729 53.3742 134.017 53.4792C134.229 53.5551 134.412 53.6368 134.553 53.7243C134.7 53.8118 134.817 53.9343 134.917 54.0919C135.012 54.2494 135.065 54.4478 135.065 54.687C135.065 54.9029 135.012 55.1012 134.9 55.2821C134.788 55.4572 134.635 55.5972 134.429 55.7022C134.223 55.8014 133.988 55.8539 133.717 55.8539C133.464 55.8539 133.217 55.8131 132.982 55.7314C132.747 55.6497 132.541 55.5505 132.364 55.4221L132.611 54.9904C132.752 55.0954 132.923 55.1829 133.117 55.2588C133.317 55.3346 133.5 55.3696 133.67 55.3696C133.888 55.3696 134.082 55.3113 134.247 55.2004C134.412 55.0896 134.494 54.9204 134.494 54.6987C134.494 54.512 134.423 54.3603 134.288 54.2494C134.147 54.1386 133.953 54.0335 133.706 53.9343C133.476 53.8468 133.282 53.7651 133.129 53.6776C132.976 53.5959 132.841 53.4792 132.735 53.3334C132.623 53.1875 132.57 53.0066 132.57 52.7908C132.57 52.4699 132.682 52.2131 132.911 52.0148C133.135 51.8164 133.429 51.7114 133.788 51.6997C134.229 51.6997 134.641 51.8106 135.023 52.0264L134.812 52.4524C134.647 52.3707 134.488 52.3065 134.323 52.2598Z" fill="white"/>
<path d="M70.3444 48.6895H134.965V49.2087H70.3444V48.6895Z" fill="white"/>
<path d="M19.4731 0H0V55.5916H4.61825V43.8408H4.84769L4.90652 43.9108L9.73656 51.7816L14.6313 43.8408H14.8843V55.5916H19.4731V0Z" fill="#2B587F"/>
<path d="M42.0822 0H22.6091V55.5916H29.557C29.2864 55.4341 29.0158 55.2707 28.7628 55.0781L28.6628 55.0023L29.1393 54.0454L29.2864 54.1738C29.6335 54.4772 30.0689 54.7456 30.5807 54.9731C31.5279 55.3932 32.4456 55.4341 33.2457 55.0373C33.6164 54.8564 33.9223 54.5764 34.1517 54.203C34.3871 53.8296 34.5047 53.3745 34.5047 52.8435C34.5047 52.3476 34.3988 51.9275 34.1812 51.5949C33.9635 51.2565 33.687 50.9823 33.3634 50.7781C33.0281 50.5622 32.5927 50.3463 32.075 50.1246C31.4867 49.8737 30.9925 49.6345 30.6042 49.4011C30.2042 49.1619 29.8688 48.841 29.5982 48.4384C29.3217 48.0358 29.1864 47.5282 29.1864 46.9273C29.1864 46.3438 29.3217 45.8187 29.5806 45.3695C29.8453 44.9144 30.2101 44.5585 30.6807 44.3076C31.1455 44.0567 31.6691 43.9225 32.2397 43.9108C32.7221 43.9108 33.2281 43.9867 33.7458 44.1325C34.2576 44.2784 34.7224 44.4709 35.1225 44.6985L35.2401 44.7627L34.846 45.6729L34.7048 45.597C34.3635 45.4103 33.9753 45.2528 33.5576 45.1186C33.1457 44.9902 32.7339 44.926 32.3397 44.926C31.6985 44.926 31.1808 45.1069 30.8043 45.4628C30.4218 45.8246 30.2336 46.2738 30.2336 46.8398C30.2336 47.2307 30.3336 47.5632 30.5336 47.8375C30.7395 48.1175 31.0102 48.3509 31.3278 48.5376C31.6632 48.7302 32.0985 48.946 32.6339 49.1794C33.2222 49.4303 33.7223 49.687 34.1164 49.9496C34.5165 50.218 34.8636 50.5855 35.1342 51.0465C35.4107 51.5132 35.5519 52.1084 35.5519 52.826C35.5519 53.5087 35.4107 54.1213 35.1225 54.6522C34.9224 55.0198 34.6577 55.3349 34.34 55.5916H42.094V0L42.0822 0Z" fill="#9BBCD0"/>
<path d="M9.83066 53.147H9.66593L9.58945 53.077L5.61835 46.6998V55.2941H13.8782V46.6182L9.83066 53.147Z" fill="#2B587F"/>
<path d="M64.6853 0H45.2122V55.5916H52.5366V44.1092H58.6727V45.1944H53.5544V49.8212H58.0844V50.8889H53.5544V55.5916H64.6853V0Z" fill="#C7D8E3"/>
</g>
<defs>
<clipPath id="clip0_1_1036">
<rect width="136" height="56" fill="white"/>
</clipPath>
</defs>
</svg>
