<svg width="387" height="122" viewBox="0 0 387 122" fill="none" xmlns="http://www.w3.org/2000/svg">
<path d="M338.298 61.3721L332.525 55.5986L326.751 61.3721L332.525 67.1456L338.298 61.3721ZM0.580139 62.3721H332.525V60.3721H0.580139V62.3721Z" fill="white"/>
<path d="M298.412 21.3069C297.997 21.5734 297.577 21.7398 297.151 21.8062C296.727 21.8622 296.337 21.824 295.982 21.6917C295.622 21.5531 295.334 21.3283 295.116 21.0175L296.246 20.2918C296.408 20.5029 296.634 20.6235 296.924 20.6536C297.216 20.6733 297.509 20.5889 297.803 20.4003C298.109 20.2035 298.308 19.9944 298.4 19.7729C298.495 19.541 298.483 19.3325 298.364 19.1474C298.237 18.9496 298.047 18.8643 297.794 18.8916C297.547 18.9148 297.183 19.0001 296.7 19.1476C296.235 19.2933 295.845 19.3951 295.531 19.4529C295.216 19.5107 294.899 19.4937 294.579 19.402C294.265 19.3062 293.997 19.086 293.775 18.7414C293.595 18.4607 293.514 18.1521 293.532 17.8158C293.547 17.4731 293.664 17.1363 293.884 16.8055C294.111 16.4707 294.425 16.1741 294.827 15.9158C295.427 15.5304 296.007 15.374 296.568 15.4466C297.13 15.5088 297.593 15.7933 297.954 16.3001L296.863 17.0012C296.692 16.7774 296.476 16.6506 296.213 16.6209C295.951 16.5913 295.673 16.6707 295.379 16.8593C295.092 17.0438 294.907 17.2395 294.823 17.4463C294.74 17.6532 294.755 17.846 294.87 18.0247C294.96 18.165 295.087 18.2503 295.251 18.2804C295.414 18.3106 295.588 18.3072 295.772 18.2703C295.951 18.2271 296.211 18.1547 296.552 18.0532C297 17.9093 297.381 17.8137 297.693 17.7664C298.007 17.7086 298.319 17.7244 298.629 17.8138C298.939 17.9032 299.206 18.115 299.43 18.4491C299.622 18.749 299.711 19.0703 299.697 19.413C299.683 19.7557 299.566 20.0925 299.346 20.4233C299.132 20.75 298.821 21.0445 298.412 21.3069Z" fill="#9BBCD0"/>
<path d="M289.308 21.7219L291.617 24.3122C291.773 24.4877 291.926 24.5798 292.076 24.5884C292.227 24.5863 292.401 24.4969 292.599 24.3203L293.194 23.7903L293.913 24.5972L293.149 25.2785C292.713 25.6671 292.288 25.863 291.874 25.8661C291.46 25.8692 291.049 25.6414 290.64 25.1828L288.331 22.5925L287.779 23.0846L287.075 22.2947L287.627 21.8027L286.59 20.6391L287.566 19.7685L288.604 20.9321L289.742 19.9176L290.446 20.7074L289.308 21.7219Z" fill="#9BBCD0"/>
<path d="M281.709 28.3122C282.004 27.9364 282.347 27.6656 282.737 27.4998C283.133 27.328 283.554 27.2828 284.001 27.3641C284.453 27.4394 284.903 27.6527 285.35 28.0041L288.258 30.2879L287.464 31.299L284.708 29.1346C284.267 28.7879 283.843 28.6336 283.437 28.6716C283.025 28.7049 282.669 28.9124 282.37 29.2942C282.07 29.676 281.95 30.0739 282.011 30.4879C282.07 30.8913 282.32 31.2664 282.762 31.6131L285.518 33.7774L284.716 34.7975L278.095 29.5973L278.896 28.5773L281.16 30.3552C281.087 30.0182 281.097 29.674 281.19 29.3226C281.287 28.9651 281.46 28.6283 281.709 28.3122Z" fill="#9BBCD0"/>
<path d="M274.91 40.0063C275.115 39.5662 275.385 39.2193 275.72 38.9655C276.052 38.7017 276.394 38.5343 276.745 38.4634L275.92 38.0794L276.472 36.8932L282.248 39.5814C282.771 39.8246 283.184 40.1507 283.487 40.5595C283.797 40.9716 283.971 41.4418 284.01 41.9701C284.052 42.4915 283.938 43.041 283.669 43.6186C283.311 44.3888 282.831 44.9435 282.23 45.2828C281.635 45.6252 281.013 45.6868 280.362 45.4675L280.904 44.302C281.242 44.3502 281.567 44.2715 281.88 44.0659C282.203 43.8566 282.459 43.5491 282.648 43.1434C282.869 42.6689 282.902 42.22 282.748 41.7968C282.597 41.3667 282.246 41.0236 281.696 40.7676L280.747 40.326C280.922 40.6502 281.023 41.0274 281.048 41.4577C281.07 41.8778 280.981 42.3045 280.779 42.7377C280.549 43.2329 280.214 43.6291 279.774 43.9265C279.331 44.2138 278.83 44.3738 278.271 44.4064C277.708 44.429 277.141 44.3075 276.571 44.0419C276 43.7763 275.549 43.4241 275.217 42.9855C274.889 42.54 274.699 42.0584 274.648 41.5407C274.592 41.0129 274.679 40.5014 274.91 40.0063ZM278.756 39.3995C278.364 39.2171 277.985 39.1412 277.62 39.1718C277.257 39.1955 276.94 39.3029 276.667 39.4938C276.394 39.6847 276.187 39.9314 276.046 40.234C275.905 40.5366 275.85 40.8537 275.88 41.1854C275.902 41.5139 276.02 41.8279 276.232 42.1274C276.44 42.4167 276.74 42.6526 277.132 42.835C277.524 43.0175 277.905 43.0984 278.274 43.0778C278.647 43.0504 278.973 42.9429 279.252 42.7552C279.529 42.5574 279.735 42.3106 279.873 42.0149C280.014 41.7124 280.069 41.3952 280.04 41.0635C280.01 40.7318 279.888 40.4197 279.672 40.1271C279.454 39.8244 279.148 39.5819 278.756 39.3995Z" fill="#9BBCD0"/>
<path d="M271.763 47.0029C271.7 47.2294 271.57 47.3979 271.374 47.5085C271.177 47.6191 270.966 47.6428 270.74 47.5796C270.513 47.5163 270.345 47.3866 270.234 47.1903C270.123 46.9941 270.1 46.7827 270.163 46.5563C270.224 46.3371 270.353 46.1722 270.549 46.0617C270.745 45.9511 270.957 45.9274 271.183 45.9906C271.41 46.0539 271.578 46.1836 271.689 46.3798C271.799 46.5761 271.824 46.7838 271.763 47.0029ZM272.734 46.6126L278.772 48.2983L278.423 49.5476L272.385 47.8618L272.734 46.6126Z" fill="#9BBCD0"/>
<path d="M277.298 55.7177L273.944 57.1566L273.829 58.1396L276.97 58.5086L276.818 59.7968L268.965 58.8742L269.284 56.1623C269.355 55.5597 269.52 55.0636 269.779 54.6741C270.04 54.277 270.359 53.9976 270.737 53.8358C271.116 53.6665 271.524 53.6075 271.961 53.6588C272.473 53.719 272.922 53.9245 273.309 54.2754C273.689 54.6178 273.918 55.1068 273.996 55.7422L277.478 54.1809L277.298 55.7177ZM272.8 58.0188L272.968 56.5951C273.024 56.113 272.946 55.7372 272.733 55.4679C272.522 55.191 272.212 55.0286 271.805 54.9808C271.399 54.933 271.068 55.0164 270.814 55.2309C270.552 55.4445 270.392 55.7962 270.335 56.2858L270.167 57.7095L272.8 58.0188Z" fill="#9BBCD0"/>
<path d="M272.062 74.174C271.965 73.6983 271.977 73.2587 272.096 72.8553C272.206 72.4459 272.381 72.1084 272.622 71.843L271.73 72.0241L271.469 70.7419L277.713 69.4742C278.278 69.3595 278.804 69.3765 279.291 69.5253C279.785 69.6727 280.205 69.9474 280.549 70.3495C280.893 70.7441 281.128 71.2537 281.255 71.8781C281.424 72.7106 281.367 73.4418 281.085 74.0719C280.81 74.7004 280.345 75.1198 279.692 75.3299L279.436 74.07C279.736 73.9085 279.951 73.652 280.081 73.3006C280.216 72.9402 280.24 72.5407 280.151 72.1022C280.047 71.5893 279.807 71.2084 279.431 70.9596C279.054 70.7034 278.568 70.6356 277.974 70.7564L276.948 70.9646C277.281 71.1213 277.586 71.3651 277.862 71.6961C278.13 72.021 278.311 72.4177 278.406 72.886C278.515 73.4212 278.48 73.9389 278.303 74.4392C278.117 74.9336 277.809 75.3599 277.379 75.7182C276.94 76.0705 276.411 76.3093 275.795 76.4346C275.178 76.5598 274.606 76.5444 274.079 76.3883C273.55 76.2247 273.111 75.95 272.762 75.5643C272.404 75.1726 272.17 74.7092 272.062 74.174ZM274.796 71.4015C274.372 71.4876 274.022 71.6515 273.746 71.8932C273.469 72.1276 273.277 72.4026 273.171 72.7183C273.065 73.0339 273.045 73.3553 273.111 73.6823C273.178 74.0094 273.321 74.2975 273.542 74.5468C273.756 74.7976 274.037 74.9805 274.385 75.0955C274.724 75.2046 275.106 75.2161 275.53 75.1301C275.953 75.044 276.308 74.8831 276.593 74.6472C276.876 74.404 277.074 74.1237 277.188 73.8066C277.293 73.4835 277.313 73.1621 277.248 72.8425C277.181 72.5154 277.038 72.2273 276.817 71.978C276.596 71.7288 276.312 71.5503 275.965 71.4428C275.609 71.3293 275.22 71.3155 274.796 71.4015Z" fill="#9BBCD0"/>
<path d="M276.018 85.222C275.813 84.774 275.722 84.3315 275.747 83.8945C275.768 83.4506 275.916 83.0448 276.189 82.6772C276.463 82.3095 276.858 82.007 277.375 81.7696L280.735 80.2265L281.272 81.3949L278.087 82.8572C277.577 83.0914 277.246 83.3978 277.095 83.7763C276.936 84.1579 276.958 84.5693 277.161 85.0104C277.363 85.4516 277.662 85.7398 278.058 85.8751C278.444 86.0067 278.892 85.9554 279.402 85.7212L282.587 84.2588L283.128 85.4375L277.431 88.0536L276.89 86.8749L277.541 86.5758C277.218 86.4904 276.923 86.3296 276.656 86.0933C276.386 85.8502 276.173 85.5597 276.018 85.222Z" fill="#9BBCD0"/>
<path d="M279.511 92.7052C279.641 92.9007 279.685 93.1089 279.641 93.3299C279.597 93.5508 279.477 93.7265 279.281 93.8571C279.086 93.9877 278.878 94.031 278.657 93.9869C278.436 93.9429 278.26 93.8232 278.129 93.6276C278.003 93.4384 277.962 93.2333 278.006 93.0124C278.05 92.7915 278.17 92.6157 278.365 92.4852C278.561 92.3546 278.769 92.3113 278.99 92.3553C279.211 92.3993 279.384 92.5159 279.511 92.7052ZM279.848 91.7141L285.061 88.2328L285.781 89.3114L280.568 92.7927L279.848 91.7141Z" fill="#9BBCD0"/>
<path d="M291.026 100.207C290.567 100.637 290.071 100.924 289.541 101.067C289.005 101.205 288.487 101.201 287.988 101.056C287.477 100.91 287.033 100.635 286.655 100.23C286.375 99.9314 286.167 99.5756 286.03 99.1633C285.883 98.7505 285.837 98.3573 285.892 97.9835L283.682 100.051L282.789 99.0955L288.937 93.3438L289.831 94.2993L289.141 94.9444C289.508 94.8922 289.893 94.9373 290.296 95.0795C290.694 95.2162 291.058 95.4618 291.39 95.8162C291.763 96.215 292.005 96.6739 292.117 97.1928C292.218 97.7113 292.179 98.2359 292 98.7665C291.811 99.2968 291.486 99.777 291.026 100.207ZM287.537 96.4445C287.222 96.7399 287.01 97.0628 286.902 97.4134C286.788 97.7584 286.769 98.0932 286.844 98.4176C286.919 98.7421 287.07 99.0262 287.298 99.2699C287.526 99.5136 287.8 99.6837 288.119 99.7802C288.432 99.8819 288.767 99.8903 289.124 99.8057C289.47 99.7206 289.801 99.5304 290.117 99.235C290.433 98.9397 290.65 98.6169 290.769 98.2667C290.883 97.911 290.905 97.5683 290.835 97.2386C290.755 96.9086 290.604 96.6245 290.381 96.3863C290.153 96.1426 289.879 95.9725 289.561 95.876C289.242 95.7795 288.907 95.7764 288.555 95.8667C288.192 95.9565 287.853 96.1492 287.537 96.4445Z" fill="#9BBCD0"/>
<path d="M295.825 107.573C295.414 107.299 295.105 106.97 294.897 106.584C294.683 106.195 294.596 105.772 294.636 105.316C294.676 104.859 294.854 104.395 295.17 103.921L297.223 100.846L298.292 101.56L296.347 104.474C296.035 104.941 295.914 105.375 295.983 105.777C296.048 106.185 296.283 106.524 296.686 106.794C297.09 107.063 297.496 107.152 297.904 107.059C298.302 106.969 298.656 106.691 298.968 106.224L300.913 103.309L301.992 104.029L298.512 109.243L297.433 108.523L297.831 107.927C297.511 108.024 297.176 108.041 296.825 107.98C296.467 107.915 296.134 107.779 295.825 107.573Z" fill="#9BBCD0"/>
<path d="M305.058 109.008C305.143 108.789 305.233 108.596 305.33 108.43L309.798 110.158C309.943 109.677 309.914 109.235 309.713 108.832C309.511 108.429 309.183 108.139 308.731 107.964C308.08 107.713 307.515 107.807 307.035 108.248L305.73 107.743C306.115 107.274 306.608 106.956 307.209 106.79C307.8 106.628 308.438 106.68 309.125 106.946C309.683 107.162 310.138 107.48 310.488 107.9C310.828 108.324 311.038 108.812 311.117 109.363C311.187 109.918 311.106 110.497 310.873 111.098C310.641 111.7 310.317 112.18 309.901 112.54C309.476 112.904 308.996 113.125 308.462 113.203C307.92 113.278 307.363 113.205 306.79 112.984C306.238 112.77 305.793 112.46 305.454 112.052C305.116 111.645 304.911 111.175 304.84 110.644C304.767 110.119 304.839 109.574 305.058 109.008ZM306.173 109.878C306.008 110.327 306.029 110.746 306.236 111.135C306.443 111.524 306.777 111.808 307.237 111.985C307.654 112.147 308.063 112.15 308.464 111.997C308.863 111.85 309.178 111.561 309.409 111.13L306.173 109.878Z" fill="#9BBCD0"/>
<path d="M313.619 113.762L314.756 113.998L315.814 108.895L317.095 109.161L316.037 114.263L316.761 114.413L316.546 115.449L315.822 115.299L315.732 115.734C315.585 116.439 315.293 116.913 314.856 117.156C314.409 117.404 313.785 117.445 312.983 117.278L313.202 116.22C313.589 116.3 313.875 116.282 314.062 116.166C314.247 116.057 314.377 115.825 314.451 115.468L314.541 115.034L313.404 114.798L313.619 113.762Z" fill="#9BBCD0"/>
<path d="M321.524 113.026C321.533 112.791 321.557 112.58 321.595 112.391L326.381 112.583C326.363 112.081 326.193 111.672 325.872 111.356C325.551 111.039 325.147 110.871 324.662 110.852C323.965 110.824 323.461 111.096 323.149 111.668L321.751 111.612C321.964 111.044 322.327 110.584 322.842 110.232C323.35 109.888 323.971 109.731 324.706 109.76C325.305 109.784 325.837 109.939 326.304 110.223C326.763 110.515 327.119 110.908 327.373 111.404C327.618 111.908 327.728 112.481 327.703 113.125C327.677 113.77 327.525 114.329 327.248 114.804C326.963 115.286 326.581 115.65 326.1 115.897C325.612 116.143 325.061 116.253 324.447 116.229C323.856 116.205 323.334 116.055 322.882 115.779C322.43 115.503 322.085 115.125 321.846 114.645C321.607 114.172 321.499 113.633 321.524 113.026ZM322.86 113.49C322.849 113.967 323.004 114.357 323.326 114.658C323.648 114.96 324.055 115.12 324.548 115.14C324.995 115.158 325.383 115.029 325.713 114.754C326.043 114.486 326.247 114.111 326.327 113.628L322.86 113.49Z" fill="#9BBCD0"/>
<path d="M338.073 116.353C337.246 116.512 336.493 116.491 335.813 116.29C335.127 116.097 334.559 115.735 334.109 115.204C333.654 114.682 333.35 114.025 333.198 113.236C333.046 112.446 333.086 111.728 333.317 111.081C333.54 110.436 333.934 109.897 334.5 109.464C335.059 109.039 335.752 108.748 336.579 108.589L339.115 108.101L340.609 115.866L338.073 116.353ZM336.779 109.628C335.87 109.802 335.221 110.182 334.832 110.767C334.442 111.352 334.333 112.091 334.505 112.985C334.678 113.886 335.056 114.543 335.637 114.956C336.219 115.37 336.964 115.489 337.873 115.314L339.135 115.072L338.042 109.385L336.779 109.628Z" fill="#9BBCD0"/>
<path d="M346.304 106.831L346.205 103.404L346.966 103.044L347.579 106.228L346.304 106.831Z" fill="#9BBCD0"/>
<path d="M352.581 105.456C352.451 105.26 352.346 105.075 352.266 104.9L356.251 102.243C355.942 101.848 355.565 101.617 355.119 101.549C354.673 101.482 354.248 101.583 353.844 101.852C353.263 102.239 353.015 102.756 353.099 103.401L351.935 104.178C351.773 103.593 351.797 103.007 352.007 102.42C352.216 101.844 352.626 101.351 353.238 100.943C353.737 100.611 354.258 100.423 354.803 100.379C355.346 100.345 355.865 100.454 356.362 100.707C356.856 100.97 357.282 101.369 357.64 101.906C357.997 102.442 358.204 102.984 358.258 103.531C358.311 104.088 358.215 104.608 357.971 105.09C357.721 105.576 357.34 105.989 356.829 106.33C356.336 106.658 355.826 106.843 355.298 106.885C354.77 106.927 354.269 106.824 353.793 106.576C353.322 106.334 352.918 105.96 352.581 105.456ZM353.935 105.045C354.207 105.439 354.561 105.663 354.999 105.718C355.436 105.772 355.86 105.663 356.27 105.389C356.643 105.141 356.881 104.809 356.987 104.392C357.096 103.982 357.041 103.558 356.822 103.121L353.935 105.045Z" fill="#9BBCD0"/>
<path d="M365.314 94.3481C365.776 94.7977 366.091 95.2842 366.259 95.8076C366.427 96.3417 366.445 96.8671 366.313 97.3838C366.18 97.9005 365.905 98.3736 365.487 98.803C364.958 99.3466 364.391 99.6681 363.787 99.7675C363.182 99.8776 362.58 99.7624 361.98 99.4219L362.956 98.4191C363.258 98.5544 363.559 98.5932 363.858 98.5355C364.158 98.4778 364.44 98.3131 364.704 98.0413C365.075 97.6608 365.235 97.2241 365.186 96.7313C365.136 96.2493 364.869 95.7729 364.386 95.3021C363.902 94.8313 363.416 94.575 362.927 94.5334C362.433 94.4972 362.001 94.6694 361.631 95.0499C361.107 95.588 360.997 96.1741 361.301 96.8083L360.325 97.8112C359.995 97.2364 359.869 96.6373 359.946 96.0141C360.029 95.3961 360.329 94.8208 360.848 94.2881C361.266 93.8587 361.731 93.5708 362.244 93.4244C362.763 93.2832 363.288 93.2868 363.821 93.4351C364.354 93.5941 364.852 93.8985 365.314 94.3481Z" fill="#9BBCD0"/>
<path d="M370.839 93.3408C370.976 93.1498 371.156 93.0359 371.378 92.9993C371.6 92.9626 371.807 93.0128 371.998 93.1498C372.189 93.2869 372.303 93.4665 372.339 93.6888C372.376 93.911 372.326 94.1177 372.189 94.3088C372.056 94.4937 371.879 94.6045 371.657 94.6411C371.434 94.6777 371.228 94.6275 371.037 94.4905C370.845 94.3535 370.732 94.1739 370.695 93.9516C370.658 93.7293 370.706 93.5258 370.839 93.3408ZM369.793 93.3746L364.698 89.7217L365.454 88.6677L370.548 92.3206L369.793 93.3746Z" fill="#9BBCD0"/>
<path d="M372.419 87.2393L369.394 85.5394C369.189 85.4243 369.014 85.3869 368.87 85.4275C368.728 85.4784 368.592 85.6195 368.462 85.851L368.072 86.5453L367.13 86.0158L367.631 85.1232C367.917 84.614 368.255 84.2907 368.646 84.1534C369.036 84.016 369.499 84.0978 370.035 84.3988L373.06 86.0986L373.422 85.4539L374.345 85.9722L373.982 86.6169L375.341 87.3805L374.7 88.5211L373.342 87.7576L372.595 89.0867L371.672 88.5684L372.419 87.2393Z" fill="#9BBCD0"/>
<path d="M371.068 77.2579C371.24 76.7957 371.476 76.4099 371.776 76.1007C372.082 75.8013 372.416 75.5976 372.779 75.4897C373.15 75.3844 373.516 75.3905 373.877 75.5081L373.41 76.7669C373.153 76.696 372.9 76.7356 372.65 76.8857C372.405 77.0455 372.222 77.289 372.101 77.6162C371.974 77.9576 371.94 78.2444 372 78.4768C372.064 78.7189 372.199 78.8782 372.405 78.9546C372.626 79.0363 372.829 78.9903 373.015 78.8165C373.198 78.6498 373.438 78.3625 373.734 77.9548C374.019 77.5587 374.269 77.243 374.486 77.0078C374.702 76.7726 374.966 76.5954 375.277 76.4762C375.586 76.364 375.932 76.3791 376.316 76.5215C376.629 76.6374 376.879 76.8353 377.067 77.1151C377.261 77.3976 377.37 77.7372 377.393 78.1339C377.413 78.5377 377.34 78.9637 377.174 79.4118C376.926 80.0803 376.557 80.554 376.065 80.8328C375.578 81.1214 375.037 81.1719 374.444 80.9842L374.894 79.768C375.166 79.8442 375.415 79.8153 375.643 79.6813C375.87 79.5472 376.045 79.3167 376.166 78.9895C376.284 78.6695 376.315 78.4017 376.257 78.1862C376.2 77.9707 376.071 77.826 375.872 77.7522C375.716 77.6942 375.563 77.7024 375.414 77.7766C375.265 77.8509 375.129 77.9579 375.004 78.0978C374.886 78.2403 374.722 78.4544 374.511 78.7402C374.239 79.1247 373.993 79.4297 373.772 79.6551C373.555 79.8903 373.296 80.0653 372.995 80.1801C372.693 80.2949 372.353 80.286 371.973 80.1534C371.639 80.0295 371.374 79.8263 371.18 79.5439C370.985 79.2614 370.876 78.9219 370.854 78.5251C370.828 78.1355 370.9 77.7131 371.068 77.2579Z" fill="#9BBCD0"/>
<path d="M379.263 71.054L373.065 70.1183L373.258 68.8359L373.99 68.9462C373.765 68.7053 373.603 68.4084 373.503 68.0558C373.409 67.7118 373.39 67.3561 373.445 66.9886C373.519 66.5011 373.686 66.0776 373.948 65.7182C374.208 65.3663 374.554 65.1078 374.985 64.9428C375.415 64.7853 375.912 64.749 376.474 64.834L380.119 65.3842L379.927 66.6554L376.474 66.134C375.919 66.0503 375.47 66.1245 375.128 66.3567C374.794 66.59 374.591 66.9467 374.518 67.4267C374.446 67.9067 374.535 68.3075 374.785 68.6291C375.042 68.9594 375.448 69.1664 376.003 69.2502L379.457 69.7716L379.263 71.054Z" fill="#9BBCD0"/>
<path d="M381.68 58.792L375.991 59.1367C375.287 59.1793 374.717 58.9973 374.282 58.5905C373.848 58.1913 373.609 57.6434 373.567 56.9469C373.525 56.2504 373.695 55.674 374.078 55.2177C374.461 54.7689 375.004 54.5232 375.709 54.4806L375.788 55.7866C375.44 55.8152 375.169 55.919 374.974 56.098C374.781 56.2845 374.694 56.5443 374.714 56.8774C374.734 57.2106 374.852 57.458 375.067 57.6197C375.289 57.781 375.571 57.8513 375.912 57.8307L381.601 57.486L381.68 58.792Z" fill="#9BBCD0"/>
<path d="M375.895 40.0434C376.069 40.4967 376.13 40.9321 376.079 41.3498C376.038 41.7717 375.921 42.1334 375.727 42.4349L376.577 42.1092L377.046 43.331L371.096 45.6107C370.558 45.817 370.036 45.8868 369.532 45.8203C369.02 45.7565 368.561 45.5547 368.154 45.215C367.751 44.8823 367.435 44.4185 367.207 43.8235C366.903 43.0303 366.838 42.2997 367.013 41.6317C367.18 40.9665 367.569 40.4763 368.179 40.1612L368.639 41.3617C368.37 41.5705 368.201 41.8589 368.13 42.227C368.056 42.6048 368.099 43.0026 368.259 43.4205C368.446 43.9092 368.745 44.2453 369.157 44.4288C369.571 44.6193 370.061 44.6061 370.628 44.389L371.605 44.0144C371.25 43.9149 370.91 43.7247 370.583 43.4438C370.265 43.1673 370.021 42.806 369.85 42.3598C369.655 41.8498 369.603 41.3335 369.696 40.8109C369.797 40.2926 370.031 39.8213 370.397 39.397C370.772 38.9771 371.253 38.6545 371.841 38.4292C372.429 38.2039 372.996 38.1249 373.541 38.192C374.089 38.2662 374.568 38.4647 374.976 38.7876C375.393 39.1149 375.7 39.5335 375.895 40.0434ZM373.656 43.2287C374.06 43.074 374.378 42.8547 374.61 42.5707C374.845 42.2938 374.989 41.991 375.041 41.6621C375.094 41.3333 375.061 41.013 374.941 40.7014C374.822 40.3898 374.633 40.1292 374.374 39.9198C374.122 39.7077 373.815 39.5736 373.452 39.5176C373.099 39.466 372.721 39.5175 372.317 39.6722C371.914 39.8269 371.591 40.044 371.349 40.3236C371.109 40.6103 370.96 40.9194 370.9 41.251C370.85 41.5869 370.883 41.9072 371 42.2117C371.119 42.5234 371.309 42.7839 371.567 42.9933C371.826 43.2028 372.136 43.3319 372.496 43.3808C372.865 43.4341 373.252 43.3834 373.656 43.2287Z" fill="#9BBCD0"/>
<path d="M370.172 29.7991C370.449 30.207 370.611 30.6286 370.659 31.0636C370.711 31.505 370.632 31.9295 370.423 32.3372C370.214 32.745 369.874 33.1085 369.403 33.4279L366.343 35.5038L365.621 34.4399L368.521 32.4726C368.986 32.1575 369.261 31.8008 369.349 31.4024C369.442 30.9999 369.353 30.5977 369.08 30.196C368.808 29.7943 368.465 29.5594 368.052 29.4912C367.65 29.4251 367.216 29.5495 366.752 29.8647L363.852 31.832L363.124 30.7587L368.311 27.2392L369.04 28.3125L368.447 28.7149C368.779 28.7459 369.097 28.8558 369.399 29.0448C369.706 29.2401 369.963 29.4915 370.172 29.7991Z" fill="#9BBCD0"/>
<path d="M365.494 22.9944C365.333 22.8231 365.256 22.6249 365.263 22.3997C365.27 22.1746 365.359 21.9815 365.53 21.8204C365.701 21.6594 365.9 21.5824 366.125 21.5894C366.35 21.5964 366.543 21.6855 366.704 21.8569C366.86 22.0227 366.934 22.2182 366.927 22.4433C366.92 22.6685 366.831 22.8615 366.66 23.0226C366.488 23.1836 366.29 23.2606 366.065 23.2536C365.84 23.2466 365.649 23.1602 365.494 22.9944ZM365.325 24.0275L360.757 28.3206L359.868 27.3755L364.437 23.0824L365.325 24.0275Z" fill="#9BBCD0"/>
<path d="M359.586 19.881C359.937 19.761 360.287 19.7351 360.637 19.8035C360.998 19.871 361.343 20.0447 361.672 20.3246L360.803 21.3478L360.552 21.1342C360.165 20.8052 359.786 20.653 359.417 20.6777C359.053 20.7073 358.665 20.9648 358.253 21.4504L356.117 23.965L355.128 23.1253L359.187 18.3476L360.175 19.1873L359.586 19.881Z" fill="#9BBCD0"/>
<path d="M353.129 17.7232C353.01 17.926 352.89 18.1015 352.768 18.2496L348.637 15.8254C348.416 16.2763 348.373 16.7171 348.507 17.1477C348.641 17.5782 348.918 17.9164 349.336 18.162C349.938 18.5152 350.511 18.5129 351.055 18.1551L352.262 18.8634C351.807 19.2645 351.27 19.4987 350.65 19.5659C350.04 19.6304 349.418 19.4764 348.784 19.104C348.267 18.8008 347.87 18.4137 347.592 17.9429C347.324 17.4694 347.196 16.9542 347.206 16.3974C347.227 15.8378 347.4 15.28 347.726 14.724C348.053 14.1679 348.45 13.7459 348.918 13.4577C349.396 13.1669 349.906 13.026 350.446 13.035C350.992 13.0479 351.53 13.2099 352.06 13.5208C352.57 13.8202 352.96 14.1983 353.228 14.6548C353.497 15.1114 353.623 15.6078 353.608 16.1439C353.596 16.6734 353.436 17.1999 353.129 17.7232ZM352.169 16.6847C352.404 16.2687 352.451 15.852 352.309 15.4345C352.167 15.017 351.883 14.6835 351.458 14.434C351.072 14.2075 350.669 14.1379 350.248 14.2253C349.832 14.3061 349.474 14.5405 349.176 14.9284L352.169 16.6847Z" fill="#9BBCD0"/>
<path d="M340.04 14.0199L343.348 9.74187L344.653 10.1799L340.393 15.3626L338.926 14.8703L338.667 8.17065L339.983 8.61233L340.04 14.0199Z" fill="#9BBCD0"/>
<path d="M334.713 6.66943C334.482 6.62773 334.302 6.51438 334.173 6.32938C334.045 6.14438 334.001 5.93618 334.043 5.70478C334.085 5.47337 334.198 5.29342 334.383 5.16491C334.568 5.0364 334.776 4.99299 335.008 5.03468C335.231 5.07503 335.408 5.18771 335.536 5.37271C335.665 5.55771 335.708 5.76592 335.666 5.99732C335.625 6.22872 335.511 6.40868 335.326 6.53719C335.141 6.6657 334.937 6.70978 334.713 6.66943ZM335.193 7.59978L334.081 13.7693L332.805 13.5393L333.916 7.36978L335.193 7.59978Z" fill="#9BBCD0"/>
<path d="M330.426 4.78761L329.695 13.175L328.403 13.0625L329.133 4.6751L330.426 4.78761Z" fill="#9BBCD0"/>
<path d="M323.793 9.68912C323.808 9.92374 323.807 10.1367 323.789 10.3279L319.01 10.643C319.08 11.14 319.292 11.5289 319.645 11.8097C319.998 12.0905 320.417 12.2149 320.901 12.1829C321.598 12.137 322.07 11.8132 322.319 11.2115L323.716 11.1194C323.565 11.7071 323.251 12.2028 322.776 12.6066C322.308 13.0023 321.707 13.2244 320.973 13.2728C320.375 13.3122 319.829 13.2152 319.335 12.9818C318.848 12.7402 318.452 12.3863 318.147 11.9199C317.85 11.4454 317.68 10.8865 317.638 10.2432C317.595 9.59987 317.687 9.02754 317.912 8.5262C318.145 8.01679 318.487 7.61417 318.939 7.31834C319.398 7.022 319.934 6.85363 320.547 6.8132C321.137 6.77428 321.672 6.86826 322.151 7.09514C322.629 7.32202 323.013 7.6616 323.301 8.11387C323.589 8.55857 323.753 9.08365 323.793 9.68912ZM322.415 9.36951C322.376 8.8932 322.18 8.52223 321.828 8.25659C321.476 7.99095 321.054 7.87435 320.562 7.90679C320.116 7.93623 319.743 8.10523 319.444 8.41379C319.145 8.71478 318.981 9.10946 318.952 9.59782L322.415 9.36951Z" fill="#9BBCD0"/>
<path d="M306.986 8.12908C307.791 7.88361 308.542 7.82509 309.24 7.95352C309.942 8.07248 310.545 8.37242 311.048 8.85332C311.557 9.32476 311.928 9.94501 312.163 10.7141C312.397 11.4831 312.434 12.2015 312.272 12.8691C312.118 13.5345 311.783 14.1125 311.266 14.603C310.755 15.084 310.097 15.4472 309.291 15.6927L306.821 16.4457L304.515 8.88207L306.986 8.12908ZM308.983 14.6806C309.868 14.4108 310.473 13.9646 310.799 13.342C311.125 12.7194 311.155 11.9728 310.889 11.1022C310.622 10.2243 310.177 9.61053 309.555 9.26092C308.933 8.91131 308.179 8.8714 307.294 9.14119L306.065 9.51602L307.753 15.0554L308.983 14.6806Z" fill="#9BBCD0"/>
</svg>
